<mxfile host="Electron" agent="Mozilla/5.0 (Windows NT 10.0; Win64; x64) AppleWebKit/537.36 (KHTML, like Gecko) draw.io/28.1.2 Chrome/138.0.7204.243 Electron/37.4.0 Safari/537.36" version="28.1.2">
  <diagram name="PÃ¡gina-1" id="FKgU3jiFG4PkWVv8xgEM">
    <mxGraphModel dx="1971" dy="744" grid="1" gridSize="10" guides="1" tooltips="1" connect="1" arrows="1" fold="1" page="1" pageScale="1" pageWidth="583" pageHeight="413" math="0" shadow="0">
      <root>
        <mxCell id="0" />
        <mxCell id="1" parent="0" />
        <mxCell id="KPQzZOYn6tuH1WiiLfgz-5" value="&lt;p style=&quot;margin:0px;margin-top:4px;text-align:center;&quot;&gt;&lt;i&gt;&amp;lt;&amp;lt;abstract&amp;gt;&amp;gt;&lt;/i&gt;&lt;br&gt;&lt;b&gt;Animal&lt;/b&gt;&lt;/p&gt;&lt;hr size=&quot;1&quot; style=&quot;border-style:solid;&quot;&gt;&lt;p style=&quot;margin:0px;margin-left:4px;&quot;&gt;- identificador: string&lt;br&gt;- especie: string&lt;/p&gt;&lt;p style=&quot;margin:0px;margin-left:4px;&quot;&gt;- fecha_nacimiento:&amp;nbsp; Date&lt;/p&gt;&lt;p style=&quot;margin:0px;margin-left:4px;&quot;&gt;- ancestros: arbol&lt;br&gt;- hijos: Collecion&amp;lt;mamifero&amp;gt;&lt;/p&gt;&lt;p style=&quot;margin:0px;margin-left:4px;&quot;&gt;&lt;br&gt;&lt;/p&gt;&lt;p style=&quot;margin:0px;margin-left:4px;&quot;&gt;&lt;br&gt;&lt;/p&gt;&lt;hr size=&quot;1&quot; style=&quot;border-style:solid;&quot;&gt;&lt;p style=&quot;margin: 0px 0px 0px 4px;&quot;&gt;+ getters y setters&lt;/p&gt;&lt;p style=&quot;margin: 0px 0px 0px 4px;&quot;&gt;+ tieneComoAncestro(unMamifero: mamifero):boolean&lt;/p&gt;" style="verticalAlign=top;align=left;overflow=fill;html=1;whiteSpace=wrap;" vertex="1" parent="1">
          <mxGeometry x="-20" y="20" width="220" height="210" as="geometry" />
        </mxCell>
        <mxCell id="KPQzZOYn6tuH1WiiLfgz-6" value="Mamifero" style="swimlane;fontStyle=1;align=center;verticalAlign=top;childLayout=stackLayout;horizontal=1;startSize=26;horizontalStack=0;resizeParent=1;resizeParentMax=0;resizeLast=0;collapsible=1;marginBottom=0;whiteSpace=wrap;html=1;" vertex="1" parent="1">
          <mxGeometry x="-140" y="312" width="160" height="48" as="geometry" />
        </mxCell>
        <mxCell id="KPQzZOYn6tuH1WiiLfgz-7" value="&lt;div&gt;&lt;br&gt;&lt;/div&gt;" style="text;strokeColor=none;fillColor=none;align=left;verticalAlign=top;spacingLeft=4;spacingRight=4;overflow=hidden;rotatable=0;points=[[0,0.5],[1,0.5]];portConstraint=eastwest;whiteSpace=wrap;html=1;" vertex="1" parent="KPQzZOYn6tuH1WiiLfgz-6">
          <mxGeometry y="26" width="160" height="14" as="geometry" />
        </mxCell>
        <mxCell id="KPQzZOYn6tuH1WiiLfgz-8" value="" style="line;strokeWidth=1;fillColor=none;align=left;verticalAlign=middle;spacingTop=-1;spacingLeft=3;spacingRight=3;rotatable=0;labelPosition=right;points=[];portConstraint=eastwest;strokeColor=inherit;" vertex="1" parent="KPQzZOYn6tuH1WiiLfgz-6">
          <mxGeometry y="40" width="160" height="8" as="geometry" />
        </mxCell>
        <mxCell id="KPQzZOYn6tuH1WiiLfgz-32" style="edgeStyle=orthogonalEdgeStyle;rounded=0;orthogonalLoop=1;jettySize=auto;html=1;exitX=0.25;exitY=0;exitDx=0;exitDy=0;entryX=0.5;entryY=1;entryDx=0;entryDy=0;" edge="1" parent="1" source="KPQzZOYn6tuH1WiiLfgz-10">
          <mxGeometry relative="1" as="geometry">
            <mxPoint x="80" y="230" as="targetPoint" />
            <mxPoint x="200" y="326" as="sourcePoint" />
          </mxGeometry>
        </mxCell>
        <mxCell id="KPQzZOYn6tuH1WiiLfgz-10" value="Oviparo" style="swimlane;fontStyle=1;align=center;verticalAlign=top;childLayout=stackLayout;horizontal=1;startSize=26;horizontalStack=0;resizeParent=1;resizeParentMax=0;resizeLast=0;collapsible=1;marginBottom=0;whiteSpace=wrap;html=1;" vertex="1" parent="1">
          <mxGeometry x="100" y="340" width="160" height="34" as="geometry" />
        </mxCell>
        <mxCell id="KPQzZOYn6tuH1WiiLfgz-12" value="" style="line;strokeWidth=1;fillColor=none;align=left;verticalAlign=middle;spacingTop=-1;spacingLeft=3;spacingRight=3;rotatable=0;labelPosition=right;points=[];portConstraint=eastwest;strokeColor=inherit;" vertex="1" parent="KPQzZOYn6tuH1WiiLfgz-10">
          <mxGeometry y="26" width="160" height="8" as="geometry" />
        </mxCell>
        <mxCell id="KPQzZOYn6tuH1WiiLfgz-23" style="edgeStyle=orthogonalEdgeStyle;rounded=0;orthogonalLoop=1;jettySize=auto;html=1;exitX=1;exitY=1;exitDx=0;exitDy=0;entryX=0.5;entryY=0;entryDx=0;entryDy=0;" edge="1" parent="1" source="KPQzZOYn6tuH1WiiLfgz-14" target="KPQzZOYn6tuH1WiiLfgz-16">
          <mxGeometry relative="1" as="geometry" />
        </mxCell>
        <mxCell id="KPQzZOYn6tuH1WiiLfgz-14" value="raiz&lt;br&gt;(mamifero)" style="ellipse;whiteSpace=wrap;html=1;" vertex="1" parent="1">
          <mxGeometry x="330" y="80" width="57.6" height="60" as="geometry" />
        </mxCell>
        <mxCell id="KPQzZOYn6tuH1WiiLfgz-24" style="edgeStyle=orthogonalEdgeStyle;rounded=0;orthogonalLoop=1;jettySize=auto;html=1;exitX=0;exitY=1;exitDx=0;exitDy=0;entryX=0.5;entryY=0;entryDx=0;entryDy=0;" edge="1" parent="1" source="KPQzZOYn6tuH1WiiLfgz-15" target="KPQzZOYn6tuH1WiiLfgz-17">
          <mxGeometry relative="1" as="geometry" />
        </mxCell>
        <mxCell id="KPQzZOYn6tuH1WiiLfgz-25" style="edgeStyle=orthogonalEdgeStyle;rounded=0;orthogonalLoop=1;jettySize=auto;html=1;exitX=1;exitY=1;exitDx=0;exitDy=0;entryX=0.5;entryY=0;entryDx=0;entryDy=0;" edge="1" parent="1" source="KPQzZOYn6tuH1WiiLfgz-15" target="KPQzZOYn6tuH1WiiLfgz-18">
          <mxGeometry relative="1" as="geometry" />
        </mxCell>
        <mxCell id="KPQzZOYn6tuH1WiiLfgz-15" value="madre" style="ellipse;whiteSpace=wrap;html=1;" vertex="1" parent="1">
          <mxGeometry x="282" y="157" width="48" height="50" as="geometry" />
        </mxCell>
        <mxCell id="KPQzZOYn6tuH1WiiLfgz-26" style="edgeStyle=orthogonalEdgeStyle;rounded=0;orthogonalLoop=1;jettySize=auto;html=1;exitX=0;exitY=1;exitDx=0;exitDy=0;" edge="1" parent="1" source="KPQzZOYn6tuH1WiiLfgz-16" target="KPQzZOYn6tuH1WiiLfgz-20">
          <mxGeometry relative="1" as="geometry" />
        </mxCell>
        <mxCell id="KPQzZOYn6tuH1WiiLfgz-27" style="edgeStyle=orthogonalEdgeStyle;rounded=0;orthogonalLoop=1;jettySize=auto;html=1;exitX=1;exitY=0.5;exitDx=0;exitDy=0;entryX=0.5;entryY=0;entryDx=0;entryDy=0;strokeColor=default;" edge="1" parent="1" source="KPQzZOYn6tuH1WiiLfgz-16" target="KPQzZOYn6tuH1WiiLfgz-19">
          <mxGeometry relative="1" as="geometry" />
        </mxCell>
        <mxCell id="KPQzZOYn6tuH1WiiLfgz-16" value="padre" style="ellipse;whiteSpace=wrap;html=1;" vertex="1" parent="1">
          <mxGeometry x="390" y="157" width="48" height="50" as="geometry" />
        </mxCell>
        <mxCell id="KPQzZOYn6tuH1WiiLfgz-17" value="abuela m" style="ellipse;whiteSpace=wrap;html=1;" vertex="1" parent="1">
          <mxGeometry x="230" y="240" width="48" height="50" as="geometry" />
        </mxCell>
        <mxCell id="KPQzZOYn6tuH1WiiLfgz-18" value="abuelo&lt;br&gt;m" style="ellipse;whiteSpace=wrap;html=1;" vertex="1" parent="1">
          <mxGeometry x="310" y="240" width="48" height="50" as="geometry" />
        </mxCell>
        <mxCell id="KPQzZOYn6tuH1WiiLfgz-19" value="abuelo&lt;br&gt;p" style="ellipse;whiteSpace=wrap;html=1;" vertex="1" parent="1">
          <mxGeometry x="460" y="240" width="48" height="50" as="geometry" />
        </mxCell>
        <mxCell id="KPQzZOYn6tuH1WiiLfgz-20" value="abuela&lt;br&gt;p" style="ellipse;whiteSpace=wrap;html=1;" vertex="1" parent="1">
          <mxGeometry x="370" y="240" width="48" height="50" as="geometry" />
        </mxCell>
        <mxCell id="KPQzZOYn6tuH1WiiLfgz-22" style="edgeStyle=orthogonalEdgeStyle;rounded=0;orthogonalLoop=1;jettySize=auto;html=1;exitX=0;exitY=1;exitDx=0;exitDy=0;entryX=0.567;entryY=-0.03;entryDx=0;entryDy=0;entryPerimeter=0;" edge="1" parent="1" source="KPQzZOYn6tuH1WiiLfgz-14" target="KPQzZOYn6tuH1WiiLfgz-15">
          <mxGeometry relative="1" as="geometry" />
        </mxCell>
        <mxCell id="KPQzZOYn6tuH1WiiLfgz-28" value="Recorro por niveles para saber su ancestros" style="text;html=1;align=center;verticalAlign=middle;whiteSpace=wrap;rounded=0;" vertex="1" parent="1">
          <mxGeometry x="409" y="60" width="150" height="50" as="geometry" />
        </mxCell>
        <mxCell id="KPQzZOYn6tuH1WiiLfgz-33" value="extends" style="text;html=1;align=center;verticalAlign=middle;whiteSpace=wrap;rounded=0;" vertex="1" parent="1">
          <mxGeometry x="-30" y="250" width="60" height="30" as="geometry" />
        </mxCell>
        <mxCell id="KPQzZOYn6tuH1WiiLfgz-34" value="Se podria solo hacer una entidad de mamifero?" style="text;html=1;align=left;verticalAlign=middle;whiteSpace=wrap;rounded=0;" vertex="1" parent="1">
          <mxGeometry x="-260" y="353" width="190" height="60" as="geometry" />
        </mxCell>
        <mxCell id="KPQzZOYn6tuH1WiiLfgz-38" value="&lt;p style=&quot;margin:0px;margin-top:4px;text-align:center;&quot;&gt;&lt;br&gt;&lt;b&gt;Mamifero&lt;/b&gt;&lt;/p&gt;&lt;hr size=&quot;1&quot; style=&quot;border-style:solid;&quot;&gt;&lt;p style=&quot;margin:0px;margin-left:4px;&quot;&gt;- identificador: string&lt;br&gt;- especie: string&lt;/p&gt;&lt;p style=&quot;margin:0px;margin-left:4px;&quot;&gt;- fecha_nacimiento:&amp;nbsp; Date&lt;/p&gt;&lt;p style=&quot;margin:0px;margin-left:4px;&quot;&gt;- padre: mamifero&lt;br&gt;- madre: mamifero&lt;/p&gt;&lt;p style=&quot;margin:0px;margin-left:4px;&quot;&gt;-hijos: Collecion&amp;lt;Mamiferos&amp;gt;&lt;/p&gt;&lt;p style=&quot;margin:0px;margin-left:4px;&quot;&gt;&lt;br&gt;&lt;/p&gt;&lt;hr size=&quot;1&quot; style=&quot;border-style:solid;&quot;&gt;&lt;p style=&quot;margin:0px;margin-left:4px;&quot;&gt;+ getters y setters&lt;/p&gt;&lt;p style=&quot;margin:0px;margin-left:4px;&quot;&gt;+ tieneComoAncestro(unMamifero: mamifero):boolean&lt;/p&gt;" style="verticalAlign=top;align=left;overflow=fill;html=1;whiteSpace=wrap;" vertex="1" parent="1">
          <mxGeometry x="-48" y="450" width="330" height="230" as="geometry" />
        </mxCell>
        <mxCell id="KPQzZOYn6tuH1WiiLfgz-39" style="edgeStyle=orthogonalEdgeStyle;rounded=0;orthogonalLoop=1;jettySize=auto;html=1;exitX=0.75;exitY=0;exitDx=0;exitDy=0;entryX=0.454;entryY=1.001;entryDx=0;entryDy=0;entryPerimeter=0;" edge="1" parent="1" source="KPQzZOYn6tuH1WiiLfgz-6" target="KPQzZOYn6tuH1WiiLfgz-5">
          <mxGeometry relative="1" as="geometry" />
        </mxCell>
      </root>
    </mxGraphModel>
  </diagram>
</mxfile>
